<svg width="54" height="64" viewBox="0 0 54 64" fill="none" xmlns="http://www.w3.org/2000/svg">
<g clip-path="url(#clip0_2_79)">
<path d="M24.4868 36.6874H30.9592V34.5268H30.2485C30.2485 35.3532 29.644 35.9625 28.7207 35.9625H27.7242V32.737H28.7987V32.0214H24.4868V32.737H25.5731V35.9625H24.4868V36.6851V36.6874Z" fill="#050038"/>
<path d="M34.072 36.6898L36.5891 36.6922L38.7261 32.7392H39.7981V32.0214H36.575V32.7392H37.5077L35.9492 35.6153L34.3719 32.7392H35.5029V32.0214H30.8275L30.8251 32.7392H31.8972L34.072 36.6898Z" fill="#050038"/>
<path d="M11.5987 32.0214H6.92326L6.9209 32.7392H7.99058L10.1677 36.6898L12.6849 36.6922L14.8219 32.7392H15.8939V32.0214H12.6707V32.7392H13.6011L12.045 35.6153L10.4676 32.7392H11.5987V32.0214Z" fill="#050038"/>
<path d="M16.5203 34.3594C16.5203 35.7338 17.6278 36.827 19.8474 36.827C22.0671 36.827 23.1627 35.7338 23.1627 34.3594C23.1627 33.004 22.0009 31.9225 19.8333 31.9225C17.6679 31.9225 16.518 33.004 16.518 34.3594H16.5203ZM20.9902 34.3712C20.9761 35.2189 20.6243 36.1021 19.8119 36.0879C19.021 36.0737 18.6738 35.2001 18.6881 34.3311C18.7046 33.4315 19.1343 32.6474 19.8758 32.6593C20.6172 32.6734 21.0068 33.4716 20.9926 34.3712H20.9902Z" fill="#050038"/>
<path d="M40.4163 34.3594C40.4163 35.7338 41.5238 36.827 43.7435 36.827C45.9631 36.827 47.0587 35.7338 47.0587 34.3594C47.0587 33.004 45.897 31.9225 43.7316 31.9225C41.5663 31.9225 40.4163 33.004 40.4163 34.3594ZM43.7717 32.6593C44.5109 32.6734 44.9028 33.4716 44.8863 34.3712C44.8698 35.2189 44.5203 36.1021 43.708 36.0879C42.917 36.0737 42.5698 35.2001 42.584 34.3311C42.6005 33.4315 43.0303 32.6474 43.7717 32.6593Z" fill="#050038"/>
<path d="M48.9336 19.5161L46.2251 22.2245C48.5463 25.8067 49.897 30.0783 49.897 34.6664C49.897 47.3159 39.6418 57.5712 26.9922 57.5712C14.3426 57.5712 4.08736 47.3159 4.08736 34.6664C4.08736 22.0168 14.3426 11.7616 26.9922 11.7616C31.5897 11.7616 35.8708 13.1169 39.46 15.45L42.1684 12.7415C37.8614 9.75442 32.631 8.00232 26.9922 8.00232C12.267 8.00232 0.328125 19.9388 0.328125 34.6664C0.328125 49.3916 12.2646 61.3304 26.9922 61.3304C41.7174 61.3304 53.6562 49.394 53.6562 34.6664C53.6562 29.0393 51.9112 23.8185 48.9359 19.5161H48.9336Z" fill="#050038"/>
<path d="M40.4025 9.05237V9.80091C42.0199 10.677 43.5406 11.7112 44.9503 12.873L41.1509 16.6723C42.5843 17.7963 43.8783 19.0903 45.0047 20.5212L48.7993 16.7267C49.9634 18.1387 50.9977 19.6617 51.8738 21.2557H52.6034V9.05237H40.4001H40.4025Z" fill="#050038"/>
</g>
<defs>
<clipPath id="clip0_2_79">
<rect width="53.3281" height="63.9938" fill="white" transform="translate(0.328125 0.00311279)"/>
</clipPath>
</defs>
</svg>
