<svg width="50" height="14" viewBox="0 0 50 14" fill="none" xmlns="http://www.w3.org/2000/svg">
<path d="M0.323599 4.2866C0.337422 3.7452 0.445238 3.2103 0.641981 2.7057C0.826371 2.2407 1.1104 1.8218 1.47411 1.4783C1.86314 1.1235 2.32136 0.853067 2.81997 0.683947C3.42356 0.485817 4.0571 0.390447 4.69249 0.402887C5.39976 0.379847 6.10563 0.490426 6.77281 0.727256C7.25112 0.903836 7.69213 1.1684 8.07305 1.5073C8.36451 1.767 8.59582 2.0871 8.75084 2.4454C8.86326 2.7067 8.93744 2.9827 8.97153 3.2656C8.97748 3.3176 8.97074 3.3703 8.95189 3.4192C8.93303 3.468 8.90261 3.5116 8.86325 3.5462C8.78588 3.6165 8.68491 3.6551 8.58035 3.6544H7.41142C7.32011 3.6586 7.23024 3.6306 7.15754 3.5752C7.10119 3.5299 7.05504 3.4732 7.02208 3.4089C6.97311 3.3232 6.92243 3.2386 6.87003 3.155C6.76295 2.9998 6.63092 2.8634 6.4793 2.7514C6.26599 2.5928 6.03047 2.4666 5.78033 2.3768C5.43224 2.2558 5.06496 2.1996 4.69663 2.2109C4.06589 2.1794 3.44668 2.3882 2.96374 2.7951C2.74611 2.9941 2.57214 3.236 2.45286 3.5057C2.33358 3.7754 2.27157 4.0668 2.27076 4.3617C2.25005 4.7538 2.24036 5.1463 2.24172 5.5389C2.24172 5.9568 2.24173 6.3499 2.27076 6.7162C2.29794 7.5151 2.53109 8.0952 2.96374 8.4551C3.45715 8.8356 4.07019 9.0274 4.69249 8.996C5.02322 8.9985 5.35296 8.9594 5.6739 8.8794C5.95497 8.8108 6.21806 8.6831 6.44613 8.5053C6.6696 8.3224 6.8433 8.086 6.95157 7.8188C7.0806 7.487 7.14188 7.1336 7.13266 6.7784V6.6558H5.37073C5.31936 6.6566 5.26837 6.6467 5.22109 6.6266C5.17379 6.6065 5.13122 6.5768 5.09612 6.5392C5.0594 6.5041 5.03027 6.4618 5.01053 6.415C4.9908 6.3681 4.98089 6.3178 4.98139 6.2669V5.2408C4.98246 5.1377 5.02376 5.0391 5.0965 4.9661C5.16923 4.893 5.26764 4.8512 5.37073 4.8496H8.69876C8.80194 4.8512 8.90042 4.893 8.97316 4.9662C9.04591 5.0394 9.08716 5.1381 9.08811 5.2413V6.8281C9.09412 7.3723 9.00106 7.9129 8.81349 8.4237C8.63324 8.8968 8.34885 9.3233 7.98137 9.6715C7.5879 10.0431 7.11984 10.3267 6.60831 10.5036C5.3629 10.8934 4.02807 10.8934 2.78266 10.5036C2.28578 10.3393 1.8302 10.0697 1.44693 9.7134C1.08748 9.3615 0.809158 8.9353 0.631384 8.4647C0.438161 7.9544 0.332693 7.4151 0.319451 6.8696C0.319451 6.6867 0.302865 6.4849 0.298718 6.2642C0.294571 6.0439 0.298718 5.8149 0.298718 5.5841V4.9059C0.298718 4.6833 0.311158 4.4898 0.319451 4.2986M13.5358 4.7358C13.2913 4.729 13.048 4.7708 12.8198 4.8589C12.6355 4.9317 12.4669 5.0386 12.3226 5.1749C12.1921 5.2987 12.0863 5.4462 12.0107 5.6094C11.944 5.7534 11.8985 5.9063 11.8757 6.0633H15.1374C15.1165 5.9088 15.0802 5.7567 15.0291 5.6094C14.9751 5.4473 14.8862 5.299 14.7688 5.1749C14.6352 5.0363 14.4725 4.9284 14.2928 4.8589C14.0509 4.7685 13.7935 4.7267 13.5354 4.7358H13.5358ZM9.99903 6.9014C9.99534 6.3835 10.0783 5.8693 10.2446 5.3786C10.3958 4.92 10.6362 4.4958 10.9519 4.1304C11.2625 3.7778 11.6438 3.4945 12.0711 3.2987C12.5289 3.0941 13.0256 2.9911 13.5271 2.9969C14.0279 2.9906 14.5243 3.0912 14.983 3.2923C15.413 3.4796 15.7997 3.7536 16.1188 4.0972C16.4317 4.4362 16.6748 4.8334 16.8344 5.2662C17.0039 5.7163 17.0901 6.1937 17.0882 6.6747V7.3239C17.0866 7.4271 17.0448 7.5256 16.9718 7.5985C16.8988 7.6714 16.8002 7.7131 16.6971 7.7146H11.8752C11.8706 7.9178 11.9167 8.1192 12.0107 8.2993C12.1029 8.4629 12.2291 8.6048 12.3812 8.7154C12.541 8.8338 12.7217 8.9218 12.9133 8.9753C13.1166 9.0318 13.3266 9.0605 13.5377 9.0605C13.7911 9.06789 14.0445 9.0361 14.2887 8.967C14.4592 8.91539 14.6204 8.8352 14.7646 8.7297C14.8457 8.6675 14.9328 8.614 15.025 8.5698C15.1125 8.5371 15.2061 8.5219 15.2996 8.526H16.4538C16.5598 8.5274 16.6611 8.56929 16.7367 8.6426C16.7751 8.6766 16.8049 8.7192 16.8237 8.7669C16.8425 8.8146 16.8498 8.8661 16.845 8.9172C16.8126 9.1058 16.7357 9.284 16.6206 9.4369C16.4515 9.6811 16.24 9.8922 15.9963 10.0613C15.6764 10.2838 15.3262 10.459 14.9563 10.5815C14.4973 10.731 14.0161 10.8011 13.5335 10.7888C13.0343 10.7946 12.539 10.6993 12.0775 10.5087C11.6473 10.3306 11.262 10.0591 10.9496 9.7139C10.6344 9.3529 10.3942 8.9328 10.2428 8.4781C10.0734 7.9685 9.99038 7.4342 9.99718 6.8972M20.5462 7.9413C20.5324 8.2012 20.6176 8.456 20.7854 8.655C20.9434 8.8338 21.2387 8.9232 21.6737 8.9232H22.5537C22.6567 8.9244 22.7551 8.9657 22.8281 9.0383C22.901 9.1109 22.9428 9.2091 22.9445 9.3121V10.2649C22.9429 10.3682 22.9012 10.4668 22.8282 10.5398C22.7551 10.6128 22.6565 10.6546 22.5533 10.6561H21.4843C20.5785 10.6561 19.8855 10.4368 19.404 9.9986C18.923 9.5609 18.6802 8.8891 18.676 7.9851V4.8796H17.7149C17.6639 4.8802 17.6133 4.8702 17.5664 4.8501C17.5195 4.83 17.4773 4.8004 17.4426 4.763C17.4048 4.7285 17.3749 4.6863 17.3548 4.6392C17.3347 4.5922 17.3249 4.5414 17.326 4.4903V3.536C17.3254 3.485 17.3355 3.4345 17.3556 3.3876C17.3756 3.3407 17.4053 3.2985 17.4426 3.2637C17.4776 3.2268 17.5199 3.1974 17.5667 3.1773C17.6135 3.1573 17.6639 3.147 17.7149 3.1472H18.6696V0.792687C18.6711 0.689907 18.7126 0.591766 18.7853 0.519086C18.858 0.446406 18.9561 0.404886 19.0589 0.403346H20.1569C20.2596 0.404886 20.3576 0.446337 20.4303 0.518927C20.503 0.591507 20.5446 0.689526 20.5462 0.792226V3.1467H22.4183C22.518 3.1525 22.6119 3.1959 22.681 3.2681C22.7501 3.3404 22.7892 3.4361 22.7906 3.536V4.4907C22.789 4.5934 22.7476 4.6915 22.675 4.7642C22.6024 4.8368 22.5044 4.8784 22.4017 4.8801H20.5292L20.5462 7.9418V7.9413ZM30.0346 6.8866L28.445 2.7703L26.8577 6.8866H30.0346ZM29.2398 0.546637C29.303 0.542067 29.3665 0.550596 29.4263 0.571686C29.486 0.592776 29.5408 0.625976 29.5872 0.669196C29.6803 0.777016 29.7507 0.902346 29.795 1.0378L33.3317 10.1654C33.3414 10.1976 33.346 10.2313 33.346 10.2649C33.3446 10.3681 33.303 10.4667 33.23 10.5398C33.1571 10.6128 33.0585 10.6545 32.9553 10.6561H31.9149C31.8426 10.6637 31.7695 10.6567 31.6998 10.6357C31.6302 10.6147 31.5655 10.5799 31.5095 10.5335C31.4414 10.465 31.3877 10.3835 31.3514 10.2939L30.7271 8.6924H26.1651L25.5408 10.2939C25.5046 10.3835 25.4508 10.465 25.3828 10.5335C25.3268 10.58 25.2621 10.6148 25.1925 10.6359C25.1228 10.6569 25.0497 10.6638 24.9773 10.6561H23.9369C23.8341 10.6538 23.7361 10.6118 23.6636 10.5389C23.5911 10.466 23.5497 10.3678 23.548 10.2649C23.5473 10.2311 23.5523 10.1975 23.5628 10.1654L27.0991 1.0378C27.1433 0.902346 27.2143 0.777016 27.3074 0.669196C27.3536 0.625736 27.4083 0.592386 27.4681 0.571286C27.528 0.550186 27.5915 0.541787 27.6548 0.546637H29.2398ZM39.5225 7.305C39.5515 7.0367 39.5515 6.7661 39.5225 6.4978C39.4663 5.8739 39.2727 5.4205 38.9461 5.1478C38.6101 4.8689 38.1846 4.7211 37.7481 4.7317C37.3129 4.7179 36.8882 4.8662 36.5561 5.1478C36.389 5.3009 36.2538 5.4855 36.1585 5.6912C36.0631 5.8968 36.0094 6.1192 36.0004 6.3457C35.9783 6.5279 35.9686 6.7114 35.9714 6.8949C35.9687 7.0788 35.9783 7.2622 36.0004 7.4442C36.0258 7.8957 36.2248 8.3201 36.5561 8.6283C36.8837 8.9186 37.3099 9.0734 37.7481 9.0605C38.1846 9.0711 38.6101 8.9233 38.9461 8.6444C39.2727 8.3721 39.4663 7.921 39.5225 7.2944V7.305ZM38.1849 10.7999C37.9155 10.8026 37.6468 10.7739 37.3841 10.7142C37.1695 10.6663 36.9603 10.5967 36.7598 10.5064C36.6004 10.4261 36.4503 10.3284 36.3124 10.2152C36.2045 10.1297 36.1037 10.0358 36.011 9.9341V13.0087C36.0094 13.1119 35.9676 13.2105 35.8946 13.2835C35.8216 13.3565 35.7231 13.3982 35.6199 13.3999H34.5237C34.4204 13.3986 34.3216 13.357 34.2486 13.2839C34.1755 13.2108 34.1339 13.1121 34.1325 13.0087V3.536C34.135 3.4333 34.1771 3.3355 34.25 3.263C34.3229 3.1905 34.421 3.149 34.5237 3.1472H35.6199C35.7227 3.1488 35.8209 3.1902 35.8938 3.2627C35.9668 3.3352 36.0088 3.4332 36.011 3.536V3.8692C36.224 3.6335 36.4812 3.442 36.7681 3.3057C36.9686 3.2152 37.1777 3.1454 37.3924 3.0974C37.6551 3.0378 37.9238 3.0092 38.1932 3.0121C38.6442 3.0056 39.0909 3.1015 39.4994 3.2927C39.8791 3.4724 40.2182 3.7282 40.4956 4.0438C40.7747 4.364 40.9952 4.7308 41.1471 5.1275C41.3051 5.5357 41.3954 5.967 41.413 6.4047C41.4235 6.548 41.4277 6.7166 41.4277 6.9101C41.4277 7.1037 41.4277 7.2723 41.413 7.4156C41.3952 7.8531 41.3054 8.2846 41.1471 8.6928C40.9952 9.0895 40.7746 9.4563 40.4956 9.7765C40.2181 10.0921 39.8792 10.3476 39.4994 10.5275C39.0877 10.7171 38.6381 10.8103 38.1849 10.7999ZM47.6852 7.305C47.7143 7.0367 47.7143 6.7661 47.6852 6.4978C47.6272 5.8739 47.436 5.4205 47.107 5.1478C46.7714 4.8682 46.3456 4.7204 45.909 4.7317C45.4739 4.7179 45.0491 4.8662 44.717 5.1478C44.5499 5.3009 44.4147 5.4855 44.3194 5.6912C44.224 5.8968 44.1703 6.1192 44.1614 6.3457C44.1404 6.528 44.1307 6.7114 44.1323 6.8949C44.1305 7.0788 44.1402 7.2622 44.1614 7.4442C44.1867 7.8957 44.3858 8.3201 44.717 8.6283C45.0448 8.9189 45.4711 9.07349 45.909 9.0605C46.3456 9.0718 46.7714 8.9239 47.107 8.6444C47.436 8.3721 47.6272 7.921 47.6852 7.2944V7.305ZM46.3417 10.7893C46.0723 10.7921 45.8036 10.7635 45.5409 10.704C45.3263 10.6557 45.1171 10.5859 44.9165 10.4958C44.7553 10.4187 44.6032 10.3238 44.4632 10.2128C44.3547 10.1273 44.2531 10.0334 44.1595 9.9318V13.0087C44.1597 13.06 44.1495 13.1108 44.1295 13.158C44.1094 13.2052 44.08 13.2479 44.043 13.2833C44.0079 13.3203 43.9656 13.3496 43.9188 13.3697C43.872 13.3897 43.8216 13.4 43.7706 13.3999H42.6722C42.5692 13.3982 42.4709 13.3564 42.3983 13.2833C42.3256 13.2103 42.2844 13.1117 42.2833 13.0087V3.536C42.2845 3.4333 42.3259 3.335 42.3985 3.2624C42.4712 3.1897 42.5694 3.1483 42.6722 3.1472H43.7706C43.873 3.1496 43.9705 3.1914 44.0429 3.2638C44.1153 3.3362 44.1571 3.4337 44.1595 3.536V3.8692C44.2531 3.7678 44.3549 3.6733 44.4632 3.5881C44.6032 3.4775 44.7553 3.3821 44.9165 3.3052C45.1172 3.2152 45.3263 3.1456 45.5409 3.0974C45.8036 3.0379 46.0723 3.0093 46.3417 3.0121C46.7934 3.0056 47.2408 3.1015 47.6502 3.2927C48.0294 3.4735 48.3682 3.729 48.6464 4.0438C48.9247 4.3641 49.1445 4.7309 49.2956 5.1275C49.4541 5.5357 49.5439 5.967 49.5619 6.4047C49.572 6.548 49.5762 6.7166 49.5762 6.9101C49.5762 7.1037 49.5762 7.2723 49.5619 7.4156C49.544 7.8531 49.454 8.2846 49.2956 8.6928C49.1444 9.0893 48.9247 9.4562 48.6464 9.7765C48.3682 10.0913 48.0294 10.3468 47.6502 10.5275C47.2409 10.7189 46.7935 10.815 46.3417 10.8086" fill="#050038"/>
</svg>
