<svg width="60" height="14" viewBox="0 0 60 14" fill="none" xmlns="http://www.w3.org/2000/svg">
<path d="M8.37931 10.0433C8.31697 10.1056 8.21311 10.1834 8.06789 10.2768C7.9224 10.3703 7.7331 10.4637 7.49954 10.5572C7.26599 10.6505 6.98035 10.7308 6.64315 10.7985C6.30564 10.8658 5.91912 10.8997 5.48314 10.8997C4.64223 10.8997 3.91553 10.7646 3.30315 10.4949C2.69051 10.2252 2.1845 9.8486 1.78496 9.366C1.38527 8.8833 1.0921 8.3125 0.90525 7.6531C0.718399 6.994 0.625 6.27 0.625 5.481C0.625 4.6923 0.726192 3.9628 0.928627 3.2933C1.13101 2.6237 1.43464 2.0452 1.83946 1.5571C2.24433 1.0693 2.75039 0.68779 3.35769 0.41261C3.96495 0.13775 4.67852 0 5.49867 0C5.90354 0 6.26945 0.0364502 6.59645 0.10898C6.92346 0.18167 7.20883 0.26739 7.4529 0.36591C7.69665 0.4647 7.89913 0.56829 8.06015 0.67733C8.22096 0.78631 8.34291 0.87736 8.42611 0.94979C8.51951 1.033 8.59984 1.1316 8.66746 1.2456C8.73487 1.36 8.76865 1.4846 8.76865 1.6194C8.76865 1.8271 8.69078 2.0347 8.5351 2.2422C8.37941 2.45 8.20809 2.642 8.02119 2.8184C7.89662 2.6938 7.75652 2.5668 7.60084 2.4369C7.4451 2.3072 7.27117 2.1931 7.07919 2.0943C6.88701 1.9958 6.66899 1.9128 6.42519 1.8452C6.18118 1.7778 5.90872 1.7439 5.60776 1.7439C5.07832 1.7439 4.63459 1.8505 4.27642 2.0632C3.9183 2.2761 3.63021 2.5536 3.41224 2.8962C3.19427 3.2388 3.03854 3.6307 2.94509 4.0718C2.85169 4.5131 2.80498 4.962 2.80498 5.4187C2.80498 5.9068 2.85169 6.3739 2.94509 6.8201C3.03848 7.2664 3.19929 7.661 3.42782 8.0034C3.65599 8.346 3.95454 8.6212 4.32312 8.8287C4.69144 9.0365 5.1508 9.1401 5.70116 9.1401C5.99161 9.1401 6.25905 9.1039 6.50306 9.0312C6.7468 8.9586 6.96237 8.8703 7.14922 8.7663C7.33607 8.6628 7.4996 8.5539 7.6397 8.4395C7.77985 8.3253 7.89662 8.2268 7.99008 8.1436C8.05236 8.2164 8.12484 8.3047 8.20804 8.4084C8.29168 8.5131 8.36964 8.6223 8.44159 8.7354C8.51413 8.8497 8.57641 8.9638 8.62844 9.0778C8.68027 9.1922 8.70626 9.2959 8.70626 9.3892C8.70626 9.5243 8.68027 9.6384 8.62844 9.7318C8.57636 9.8253 8.49337 9.9292 8.37931 10.0433ZM16.4037 8.8491C16.4037 9.6741 16.5236 10.2746 16.7639 10.6506C16.576 10.7235 16.401 10.7758 16.2392 10.8072C16.0771 10.8385 15.9075 10.8541 15.7301 10.8541C15.3542 10.8541 15.0695 10.781 14.8764 10.6348C14.6831 10.4888 14.5604 10.2799 14.5083 10.0082C14.2784 10.2487 13.9756 10.4522 13.5997 10.6194C13.2237 10.7861 12.7641 10.8699 12.2212 10.8699C11.9392 10.8699 11.6573 10.8308 11.3753 10.753C11.0933 10.6745 10.8373 10.5472 10.6077 10.3705C10.3778 10.1934 10.1899 9.9565 10.0438 9.6598C9.89739 9.3631 9.82444 9.0014 9.82444 8.5747C9.82444 8.0438 9.95225 7.6116 10.2082 7.2786C10.4641 6.9454 10.7852 6.6826 11.1717 6.4899C11.5579 6.2975 11.9757 6.165 12.4249 6.0919C12.8738 6.019 13.2864 5.9723 13.6623 5.9512C13.7878 5.9409 13.9103 5.9355 14.0305 5.9355H14.3673V5.6504C14.3673 5.249 14.2601 4.9638 14.0461 4.795C13.8319 4.6261 13.4846 4.5414 13.0044 4.5414C12.5553 4.5414 12.1558 4.6145 11.8061 4.7607C11.4561 4.907 11.1141 5.074 10.78 5.262C10.6337 5.0845 10.5161 4.8887 10.4276 4.6745C10.3388 4.4606 10.2944 4.3013 10.2944 4.1968C10.2944 4.0506 10.3752 3.9097 10.5372 3.7738C10.699 3.6382 10.921 3.5153 11.203 3.4057C11.485 3.296 11.8086 3.2074 12.1743 3.1394C12.5397 3.0716 12.9261 3.0376 13.3335 3.0376C13.8974 3.0376 14.3751 3.0951 14.7667 3.2099C15.1584 3.3249 15.4768 3.5024 15.7223 3.7425C15.9676 3.9829 16.1426 4.2829 16.247 4.6432C16.3513 5.0035 16.4037 5.424 16.4037 5.9042V8.8491ZM14.3985 7.032H14.1793C14.106 7.032 14.0329 7.0374 13.96 7.0477C13.6987 7.0688 13.4402 7.1 13.1846 7.1416C12.9285 7.1835 12.7014 7.2566 12.5032 7.361C12.3047 7.4655 12.1429 7.6013 12.0176 7.7682C11.8922 7.9354 11.8295 8.1496 11.8295 8.4106C11.8295 8.703 11.913 8.9509 12.0801 9.1546C12.2471 9.3583 12.5291 9.4601 12.9261 9.4601C13.1243 9.4601 13.3124 9.4341 13.49 9.3816C13.6675 9.3297 13.8241 9.2617 13.96 9.1782C14.0956 9.0946 14.2028 9.0033 14.2811 8.9039C14.3594 8.8048 14.3986 8.7135 14.3986 8.6299V7.032H14.3985ZM20.304 3.9461C20.4704 3.7478 20.7309 3.5466 21.0847 3.3429C21.4387 3.1393 21.8863 3.0375 22.4277 3.0375C22.8131 3.0375 23.18 3.1028 23.5288 3.2333C23.8773 3.364 24.1872 3.5755 24.4578 3.8677C24.7286 4.1602 24.9446 4.5467 25.106 5.0269C25.2674 5.5074 25.3481 6.0975 25.3481 6.797C25.3481 7.6115 25.2543 8.2827 25.067 8.8099C24.8794 9.3375 24.6376 9.7552 24.341 10.0632C24.0443 10.3713 23.7136 10.588 23.3494 10.7132C22.9849 10.8385 22.6205 10.9013 22.2563 10.9013C21.9543 10.9013 21.6913 10.8673 21.4677 10.7995C21.2437 10.7314 21.0538 10.656 20.8976 10.5723C20.7415 10.4888 20.6218 10.4054 20.5386 10.3216C20.4554 10.2382 20.4032 10.1806 20.3825 10.1492V14H18.252V3.2567C18.3044 3.2465 18.3676 3.236 18.4414 3.2255C18.5046 3.2152 18.5783 3.2073 18.6625 3.2019C18.7466 3.1968 18.8466 3.1942 18.9623 3.1942C19.3094 3.1942 19.604 3.2517 19.8461 3.3665C20.088 3.4815 20.2408 3.6746 20.304 3.9461ZM23.1237 6.844C23.1237 6.5307 23.0977 6.2385 23.0458 5.9668C22.9939 5.6954 22.9083 5.4604 22.7888 5.2619C22.6694 5.0636 22.5083 4.9094 22.3059 4.7997C22.1032 4.6901 21.8568 4.6354 21.5662 4.6354C21.1301 4.6354 20.8263 4.719 20.6549 4.8859C20.4837 5.0531 20.398 5.236 20.398 5.4342V8.7552C20.4809 8.8389 20.6287 8.9379 20.8417 9.0528C21.0547 9.1678 21.3011 9.225 21.5816 9.225C22.1112 9.225 22.5006 9.0164 22.7499 8.5985C22.9991 8.1809 23.1237 7.5959 23.1237 6.844ZM26.9924 9.5384C26.9192 9.3297 26.8722 9.1102 26.8514 8.8804C26.8304 8.6508 26.8201 8.4211 26.8201 8.1911V0.9227C26.893 0.91245 26.9714 0.90194 27.055 0.89137C27.1279 0.88112 27.2063 0.87333 27.29 0.86789C27.3735 0.86277 27.4569 0.8601 27.5406 0.8601C27.7075 0.8601 27.8748 0.87579 28.0419 0.90706C28.2088 0.93844 28.3603 1.0011 28.4963 1.095C28.6319 1.189 28.7415 1.3171 28.8251 1.4788C28.9087 1.6408 28.9504 1.8524 28.9504 2.1132V3.2254H31.1436V4.8076H28.9504V8.1481C28.9504 8.8766 29.2481 9.2407 29.8434 9.2407C29.9895 9.2407 30.1278 9.2173 30.2585 9.1702C30.389 9.1232 30.5064 9.0711 30.611 9.0136C30.7153 8.9562 30.8068 8.8962 30.8851 8.8335C30.9634 8.7708 31.0182 8.7239 31.0495 8.6925C31.2062 8.9224 31.3261 9.1214 31.4098 9.2893C31.4933 9.4575 31.5351 9.6152 31.5351 9.7627C31.5351 9.8998 31.4804 10.0343 31.3707 10.166C31.2609 10.2977 31.1068 10.4191 30.9085 10.5297C30.7101 10.6403 30.47 10.7299 30.188 10.7985C29.906 10.867 29.5978 10.9013 29.2637 10.9013C28.6161 10.9013 28.1123 10.7759 27.752 10.5254C27.3918 10.2746 27.1384 9.9456 26.9924 9.5384ZM36.5392 9.3347C36.8011 9.3347 37.0317 9.3061 37.231 9.2485C37.43 9.1913 37.6081 9.1208 37.7654 9.0372C37.9224 8.9538 38.0588 8.8623 38.1741 8.7631C38.2894 8.6639 38.3941 8.5726 38.4887 8.4889C38.6142 8.6454 38.7452 8.8467 38.8815 9.0919C39.0177 9.3375 39.0859 9.5384 39.0859 9.695C39.0859 9.9248 38.9552 10.1337 38.6943 10.3216C38.475 10.4888 38.1641 10.6324 37.7623 10.7524C37.3601 10.8724 36.8874 10.9325 36.3446 10.9325C35.8535 10.9325 35.3706 10.8699 34.8956 10.7446C34.4203 10.6193 33.9973 10.3999 33.6267 10.0866C33.2559 9.7734 32.9556 9.3531 32.7259 8.8257C32.4962 8.2983 32.3813 7.6327 32.3813 6.8284C32.3813 6.1704 32.4832 5.6041 32.6867 5.1288C32.8904 4.6537 33.1618 4.2594 33.5015 3.9461C33.8406 3.6328 34.2244 3.4032 34.6527 3.2568C35.0808 3.1107 35.5195 3.0375 35.9686 3.0375C36.5534 3.0375 37.0494 3.1291 37.4567 3.3117C37.8641 3.4945 38.1954 3.74 38.4515 4.0479C38.7072 4.356 38.8925 4.7085 39.0075 5.1053C39.1223 5.5023 39.1798 5.9198 39.1798 6.3584V6.5777C39.1798 6.6615 39.1772 6.75 39.172 6.844C39.1667 6.9381 39.1615 7.0296 39.1564 7.1181C39.151 7.2071 39.1431 7.2775 39.133 7.3297H34.5117C34.5536 7.9041 34.7317 8.3818 35.0461 8.7631C35.3602 9.1444 35.858 9.3347 36.5392 9.3347ZM37.2531 6.1547C37.2531 5.6535 37.1558 5.2462 36.9615 4.9329C36.7672 4.6197 36.4178 4.4629 35.9139 4.4629C35.4831 4.4629 35.1392 4.6118 34.8819 4.9094C34.6244 5.2071 34.4961 5.6222 34.4961 6.1547H37.2531ZM42.8873 3.9856C42.9498 3.8925 43.0333 3.7889 43.1379 3.6748C43.2421 3.5608 43.3702 3.4572 43.5217 3.364C43.673 3.2708 43.8401 3.1929 44.023 3.1308C44.2055 3.0686 44.4014 3.0375 44.6105 3.0375C44.7357 3.0375 44.8689 3.048 45.0098 3.0686C45.1508 3.0894 45.2812 3.1283 45.4014 3.1851C45.5214 3.2422 45.6181 3.3197 45.6912 3.4181C45.7642 3.5166 45.8009 3.6382 45.8009 3.7831C45.8009 4.011 45.7433 4.2726 45.6286 4.5681C45.5135 4.8637 45.3989 5.1158 45.284 5.3246C45.1063 5.1784 44.9288 5.0662 44.7513 4.9878C44.5737 4.9095 44.3648 4.8703 44.1247 4.8703C43.801 4.8703 43.5295 4.9646 43.3103 5.153C43.0908 5.3415 42.9812 5.5667 42.9812 5.8285V10.8996H40.8509V3.2567C40.903 3.2465 40.9656 3.236 41.0388 3.2255C41.1014 3.2152 41.1745 3.2073 41.2581 3.2019C41.3416 3.1968 41.4407 3.1942 41.5557 3.1942C41.8898 3.1942 42.1796 3.2589 42.4251 3.3883C42.6703 3.5174 42.8246 3.7167 42.8873 3.9856ZM48.9443 3.9856C49.0069 3.8925 49.0904 3.7889 49.1949 3.6748C49.2992 3.5608 49.4272 3.4572 49.5787 3.364C49.73 3.2708 49.8971 3.1929 50.08 3.1308C50.2626 3.0686 50.4584 3.0375 50.6674 3.0375C50.7927 3.0375 50.9258 3.048 51.0668 3.0686C51.2077 3.0894 51.3383 3.1283 51.4584 3.1851C51.5785 3.2422 51.675 3.3197 51.7484 3.4181C51.8213 3.5166 51.858 3.6382 51.858 3.7831C51.858 4.011 51.8003 4.2726 51.6857 4.5681C51.5705 4.8637 51.4558 5.1158 51.341 5.3246C51.1634 5.1784 50.9857 5.0662 50.8083 4.9878C50.6308 4.9095 50.4219 4.8703 50.1818 4.8703C49.858 4.8703 49.5865 4.9646 49.3672 5.153C49.1479 5.3415 49.0383 5.5667 49.0383 5.8285V10.8996H46.9079V3.2567C46.96 3.2465 47.0227 3.236 47.0959 3.2255C47.1586 3.2152 47.2316 3.2073 47.3152 3.2019C47.3986 3.1968 47.4977 3.1942 47.6127 3.1942C47.947 3.1942 48.2367 3.2589 48.4821 3.3883C48.7274 3.5174 48.8815 3.7167 48.9443 3.9856ZM59.1108 8.8491C59.1108 9.6741 59.2308 10.2746 59.4711 10.6506C59.2831 10.7235 59.1082 10.7758 58.9464 10.8072C58.7844 10.8385 58.6147 10.8541 58.4373 10.8541C58.0612 10.8541 57.7767 10.781 57.5836 10.6348C57.3901 10.4888 57.2676 10.2799 57.2154 10.0082C56.9856 10.2487 56.6828 10.4522 56.3068 10.6194C55.9309 10.7861 55.4712 10.8699 54.9284 10.8699C54.6464 10.8699 54.3645 10.8308 54.0824 10.753C53.8005 10.6745 53.5444 10.5472 53.3149 10.3705C53.085 10.1934 52.8971 9.9565 52.7509 9.6598C52.6046 9.3631 52.5317 9.0014 52.5317 8.5747C52.5317 8.0438 52.6593 7.6116 52.9155 7.2786C53.1712 6.9454 53.4924 6.6826 53.8789 6.4899C54.2651 6.2975 54.6828 6.165 55.1321 6.0919C55.5809 6.019 55.9936 5.9723 56.3695 5.9512C56.4949 5.9409 56.6175 5.9355 56.7378 5.9355H57.0745V5.6504C57.0745 5.249 56.9672 4.9638 56.7533 4.795C56.539 4.6261 56.1918 4.5414 55.7116 4.5414C55.2625 4.5414 54.8631 4.6145 54.5133 4.7607C54.1633 4.907 53.8213 5.074 53.4872 5.262C53.3409 5.0845 53.2232 4.8887 53.1347 4.6745C53.046 4.4606 53.0016 4.3013 53.0016 4.1968C53.0016 4.0506 53.0824 3.9097 53.2444 3.7738C53.4062 3.6382 53.6282 3.5153 53.9101 3.4057C54.1922 3.296 54.5157 3.2074 54.8813 3.1394C55.2468 3.0716 55.6333 3.0376 56.0406 3.0376C56.6045 3.0376 57.0823 3.0951 57.4739 3.2099C57.8655 3.3249 58.1839 3.5024 58.4294 3.7425C58.6747 3.9829 58.8496 4.2829 58.9542 4.6432C59.0584 5.0035 59.1108 5.424 59.1108 5.9042V8.8491ZM57.1057 7.032H56.8864C56.8132 7.032 56.7401 7.0374 56.6672 7.0477C56.406 7.0688 56.1474 7.1 55.8917 7.1416C55.6357 7.1835 55.4086 7.2566 55.2103 7.361C55.0118 7.4655 54.85 7.6013 54.7247 7.7682C54.5994 7.9354 54.5367 8.1496 54.5367 8.4106C54.5367 8.703 54.6202 8.9509 54.7873 9.1546C54.9543 9.3583 55.2364 9.4601 55.6333 9.4601C55.8316 9.4601 56.0196 9.4341 56.1972 9.3816C56.3747 9.3297 56.5313 9.2617 56.6672 9.1782C56.8027 9.0946 56.91 9.0033 56.9883 8.9039C57.0666 8.8048 57.1058 8.7135 57.1058 8.6299V7.032H57.1057Z" fill="#050038"/>
</svg>
